<?xml version="1.0" standalone="no"?>
<!DOCTYPE svg PUBLIC "-//W3C//DTD SVG 1.1//EN" "http://www.w3.org/Graphics/SVG/1.1/DTD/svg11.dtd" >
<!--
2013-9-30: Created.
-->
<svg>
<metadata>
Created by iconfont
</metadata>
<defs>

<font id="iconfont" horiz-adv-x="1024" >
  <font-face
    font-family="iconfont"
    font-weight="500"
    font-stretch="normal"
    units-per-em="1024"
    ascent="896"
    descent="-128"
  />
    <missing-glyph />
    
    <glyph glyph-name="x" unicode="x" horiz-adv-x="1001"
d="M281 543q-27 -1 -53 -1h-83q-18 0 -36.5 -6t-32.5 -18.5t-23 -32t-9 -45.5v-76h912v41q0 16 -0.5 30t-0.5 18q0 13 -5 29t-17 29.5t-31.5 22.5t-49.5 9h-133v-97h-438v97zM955 310v-52q0 -23 0.5 -52t0.5 -58t-10.5 -47.5t-26 -30t-33 -16t-31.5 -4.5q-14 -1 -29.5 -0.5
t-29.5 0.5h-32l-45 128h-439l-44 -128h-29h-34q-20 0 -45 1q-25 0 -41 9.5t-25.5 23t-13.5 29.5t-4 30v167h911zM163 247q-12 0 -21 -8.5t-9 -21.5t9 -21.5t21 -8.5q13 0 22 8.5t9 21.5t-9 21.5t-22 8.5zM316 123q-8 -26 -14 -48q-5 -19 -10.5 -37t-7.5 -25t-3 -15t1 -14.5
t9.5 -10.5t21.5 -4h37h67h81h80h64h36q23 0 34 12t2 38q-5 13 -9.5 30.5t-9.5 34.5q-5 19 -11 39h-368zM336 498v228q0 11 2.5 23t10 21.5t20.5 15.5t34 6h188q31 0 51.5 -14.5t20.5 -52.5v-227h-327z" />
    

    
    <glyph glyph-name="bodadianhua" unicode="&#58931;" d="M512 821.112c-241.412 0-437.112-195.699-437.112-437.111S270.588-53.112 512-53.112 949.112 142.589 949.112 384 753.412 821.112 512 821.112z m232.653-624.07s-33.409-51.328-96.466-55.271c-82.822-5.203-174.851 22.078-260.976 109.132C302.047 337 264.964 441.671 269.534 516.221c3.172 51.806 35.947 85.194 49.566 95.333 13.645 10.118 35.949 23.29 51.603 8.971 18.692-17.076 68.831-92.189 83.371-120.746 6.537-12.806-1.071-33.626-20.51-50.677-19.413-17.054-44.865-34.166-32.187-60.492 6.758-14.016 8.987-26.131 52.565-70.436 39.378-39.996 62.356-50.067 79.652-55.508 25.518-8.037 37.304 15.559 52.014 33.993 14.717 18.418 28.907 28.21 46.291 21.211 18.452-7.474 100.596-65.367 118.222-82.155 13.183-12.568-5.468-38.673-5.468-38.673z"  horiz-adv-x="1024" />

    
    <glyph glyph-name="dianzan" unicode="&#58932;" d="M904.179 281.398c0 24.982-7.463 45.126-21.722 59.014 11.286 14.227 21.533 39.483 21.533 62.355l-0.005 0.251c-1.243 51.054-49.905 86.713-118.335 86.713H629.028c11.387 36.835 16.423 79.161 14.236 120.838-2.489 47.411-14.133 89.572-32.784 118.713-10.903 17.027-23.913 29.652-38.67 37.53-11.652 6.225-24.078 9.377-36.924 9.377-27.711 0-74.191-11.718-74.191-90.211 0-38.835-1.619-77.468-21.049-123.064-8.544-15.624-64.335-73.493-120.455-73.493h-113.6c-22.208 0-42.102-8.161-57.53-23.611-18.253-18.278-28.279-45.114-28.239-75.569l0.044-0.948 29.458-310.777c4.159-55.607 34.13-86.224 84.399-86.229 0.15 0 23.65-0.189 41.088-0.189 9.055 0 17.489 0.069 22.569 0.194 17.214 0.563 30.757 10.596 41.643 18.656l3.282 2.425c3.302 2.444 7.662 5.677 9.976 6.604 1.83-0.808 4.931-2.329 7.738-3.705 5.751-2.818 13.622-6.685 22.189-10.325 20.336-8.591 49.649-14.133 74.7-14.133h237.588c111.437 0 128.078 56.248 128.078 89.781 0 11.156-1.771 19.894-6.161 28.797 34.668 12.271 54.936 37.164 54.936 68.447 0 9.908-2.992 24.373-8.738 35.243 18.986 11.839 41.612 37.914 41.568 67.316z m-87.278-32.185h-14.647l0.649-46.094 6.935-2.621c2.751-1.024 9.208-3.412 9.222-20.547 0-20.145-32.789-27.458-54.828-27.458l-10.112 0.184-0.65-45.977 8.114-1.813c2.968-0.656 8.485-1.889 8.461-20.221 0-12.168-4.97-21.321-15.194-28.001-12.88-8.419-33.418-12.686-61.029-12.686H447.783c-9.672 0-31.966 6.193-45.011 12.497-9.832 4.754-24.291 12.735-33.865 18.02-0.469 0.263-0.934 0.513-1.376 0.762V445.576c62.345 20.228 111.599 73.032 124.658 97.986l0.337 0.7c13.846 32.199 21.864 66.315 21.864 145.417 0 17.673 3.297 25.1 6.065 28.22 2.334 2.638 5.781 3.71 11.895 3.71 8.441 0 25.93-11.416 34.995-25.601 14.187-22.152 23.137-58.562 23.94-97.411 0.892-43.132-7.918-85.715-24.798-119.912l-0.494-0.997-9.908-40.316 230.759 0.049c31.271-1.771 64.389-14.357 64.544-34.28l-0.305-9.927c-0.393-5.781-2.987-19.484-9.62-24.987-6.716-5.577-11.907-6.49-12.858-6.608l-10.185 0.214 0.474-10.311-0.315-37.368 8.901-1.199c4.24-0.582 11.627-2.368 14.74-4.508 6.331-4.343 9.856-13.649 9.439-24.891-0.164-4.567-4.351-13.077-13.33-21.82-8.828-8.607-17.293-12.523-21.428-12.523zM314.693 437.435v-379.591a729.76 729.76 0 0 1-9.274-6.699c-5.188-3.832-9.372-6.368-11.129-7.21-13.548-0.329-51.526-0.054-63.173 0.034l-0.764 0.01c-12.979 0-25.213 13.576-28.579 31.639l-29.377 322.235c0.226 17.698 14.052 37.931 32.325 39.913l109.971-0.331z m0 0"  horiz-adv-x="1024" />

    
    <glyph glyph-name="denglu-shoujihaoma" unicode="&#58933;" d="M433.245 740.521h157.512v-29.365H433.245zM577.41 117.695c0-36.124-29.286-65.407-65.407-65.407-36.124 0-65.407 29.283-65.407 65.407 0 36.122 29.283 65.407 65.407 65.407 36.121 0.001 65.407-29.285 65.407-65.407z m-65.407 40.28c-22.248 0-40.28-18.037-40.28-40.28 0-22.25 18.032-40.283 40.28-40.283 22.243 0 40.28 18.032 40.28 40.283 0 22.243-18.038 40.28-40.28 40.28z m0 0M740.926 807.002h-457.85c-39.925 0-72.291-36.641-72.291-81.838v-654.698c0-45.196 32.366-81.833 72.291-81.833H635.73l32.214-27.636 19.841 23.13-36.219 31.072-0.224-0.268 0.348 0.706H306.244c-35.883 0-64.978 34.221-64.978 76.439V703.56c0 42.213 29.094 76.435 64.978 76.435h411.513c35.886 0 64.978-34.222 64.978-76.435v-611.484c0-42.218-29.092-76.439-64.978-76.439h-18.313v-27.003h41.483c39.923 0 72.289 36.636 72.289 81.838V725.167c-0.002 45.196-32.367 81.835-72.29 81.835z m0 0"  horiz-adv-x="1024" />

    
    <glyph glyph-name="fenxiangma" unicode="&#58934;" d="M769.946 421.328a46.862 46.862 0 0 1-46.854 0 46.854 46.854 0 0 1 0-81.156 46.862 46.862 0 0 1 46.854 0 46.858 46.858 0 0 1 0 81.156zM254.058 340.172a46.866 46.866 0 0 1 46.856 0 46.855 46.855 0 1 1-46.856 81.156 46.858 46.858 0 0 1-23.43-40.574 46.863 46.863 0 0 1 23.43-40.582zM535.384 340.172a46.857 46.857 0 0 1 23.424 40.582 46.855 46.855 0 0 1-23.424 40.574 46.866 46.866 0 0 1-46.856 0 46.852 46.852 0 0 1 0-81.156 46.866 46.866 0 0 1 46.856 0zM767.41 169.663c-12.899 0-23.071-10.434-23.071-23.429v-125.105c0-8.633-4.937-12.815-13.565-12.815H293.042c-8.629 0-11.084 4.182-11.084 12.815V146.234c0 12.899-10.219 23.429-23.116 23.429-12.903 0-23.123-10.434-23.123-23.429v-156.312c0-17.26 8.856-27.846 26.117-27.846h500.238c17.261 0 28.505 10.586 28.505 27.846V146.234c-0.001 12.995-10.266 23.429-23.169 23.429zM762.073 805.924H261.835c-17.261 0-26.117-17.085-26.117-34.346v-156.311c0-12.996 10.22-23.43 23.123-23.43 12.897 0 23.116 10.527 23.116 23.43V740.275c0 8.633 2.455 19.411 11.084 19.411h437.733c8.628 0 13.565-10.778 13.565-19.411v-125.107c0-12.993 10.171-23.423 23.071-23.423 12.903 0 23.168 10.526 23.168 23.523v156.31c0 17.261-11.244 34.346-28.505 34.346z"  horiz-adv-x="1024" />

    
    <glyph glyph-name="paixu" unicode="&#58935;" d="M401.018 769.368a35.918 35.918 0 0 1-7.65 11.298c-10.157 10.162-24.87 12.976-37.562 8.47a35.724 35.724 0 0 1-8.674-4.51 35.255 35.255 0 0 1-4.711-3.961c-1.479-1.477-167.023-167.769-167.023-167.769-14.068-14.073-14.073-36.882 0-50.951 14.069-14.069 36.878-14.069 50.946 0l105.52 105.52v-654.663c0-19.893 16.132-36.025 36.025-36.021 19.902 0 36.03 16.128 36.03 36.021v742.39h-0.017a36.03 36.03 0 0 1-2.884 14.176zM848.606 206.05c-14.069 14.069-36.884 14.069-50.952 0L692.135 100.534l0.005 654.658c0 19.897-16.133 36.025-36.034 36.025-19.893 0-36.022-16.128-36.022-36.025v-742.385h0.009a36.23 36.23 0 0 1 2.895-14.175 35.79 35.79 0 0 1 7.645-11.298c10.161-10.162 24.873-12.981 37.561-8.47a35.513 35.513 0 0 1 8.675 4.505 36.022 36.022 0 0 1 4.715 3.965c1.477 1.479 167.023 167.764 167.023 167.764 14.063 14.069 14.063 36.879-0.001 50.952z"  horiz-adv-x="1024" />

    
    <glyph glyph-name="shipin" unicode="&#58936;" d="M620.888 656.802H145.531s-79.616 0-79.616-77.275V188.47c0-77.272 79.616-77.272 79.616-77.272h475.357s79.613 0 79.613 77.272V577.186c0 79.616-79.613 79.616-79.613 79.616z m325.483-39.807c-7.022 2.338-14.048 2.338-18.733-2.341L770.751 492.888c-4.682-4.682-7.029-9.37-7.029-14.048v-194.363c0-4.682 2.347-11.707 7.029-14.048l156.888-121.766c2.344-2.341 7.026-4.682 11.71-4.682 2.341 0 4.682 0 9.366 2.341 7.022 2.341 9.37 9.366 9.37 16.395V600.6c-0.001 7.029-4.688 14.055-11.714 16.395z m0 0"  horiz-adv-x="1024" />

    
    <glyph glyph-name="denglu-yanzhengma" unicode="&#58937;" d="M896.054 615.98c-34.195 2.33-68.682 8.838-98.118 18.258-9.516 2.915-19.134 6.026-28.751 9.521-20.303 5.928-47.893 17.776-79.173 34.681a4.653 4.653 0 0 1-0.967 0.489c-7.387 3.981-14.867 8.256-22.538 12.723-10.299 5.923-20.596 12.244-30.797 18.847-0.385 0.287-0.776 0.481-1.164 0.773-7.387 4.762-14.673 9.619-21.858 14.771-4.759 3.202-9.422 6.701-14.184 10.098-3.59 2.625-7.092 5.054-10.685 7.775-26.035 19.427-51.679 41.186-75.772 64.697-23.994-23.511-49.739-45.27-75.772-64.697-3.593-2.721-7.092-5.15-10.685-7.775-4.762-3.396-9.422-6.895-14.184-10.098-7.286-5.054-14.569-10.009-21.855-14.771-0.391-0.292-0.778-0.486-1.169-0.773-10.198-6.603-20.497-12.924-30.791-18.847-7.676-4.467-15.154-8.742-22.538-12.723-0.292-0.197-0.68-0.391-0.972-0.489-31.28-16.905-58.963-28.753-79.168-34.681-9.619-3.494-19.139-6.606-28.758-9.521-29.532-9.42-63.918-15.834-98.111-18.258h-0.098c0.972-15.353 2.041-35.755 3.207-57.706h0.678c5.734-82.279 22.246-199.24 47.114-268.018 1.071-3.008 2.038-6.12 3.207-9.133 0.486-1.358 1.164-2.716 1.65-4.079 59.356-153.582 162.714-265.393 286.961-306.388v-0.391c16.414-5.437 30.209-8.742 41.186-10.878 10.884 2.136 24.77 5.442 41.189 10.878v0.391c124.246 40.995 227.605 152.806 287.157 306.486 0.481 1.358 1.161 2.721 1.65 4.079 1.066 3.013 2.038 6.122 3.202 9.13 24.868 68.781 41.385 185.741 47.114 268.018h0.68c1.17 21.955 2.14 42.258 3.113 57.611z m-44.978-39.735l-0.486-9.034c-0.486-2.041-0.778-4.177-0.972-6.313-5.341-76.548-20.492-190.011-44.88-257.333-0.678-1.844-1.262-3.688-1.942-5.535-0.391-1.166-0.773-2.33-1.358-3.882a159.932 159.932 0 0 0-1.363-3.207c-55.37-142.9-150.473-245.775-261.12-282.202a46.11 46.11 0 0 1-5.145-2.041c-7.482-2.333-14.867-4.371-21.959-6.021a308.761 308.761 0 0 0-21.855 5.923c-1.65 0.781-3.399 1.559-5.243 2.139-110.647 36.525-205.75 139.302-261.027 281.907-0.385 1.169-0.872 2.235-1.65 3.885-0.391 1.169-0.773 2.235-1.164 3.404-0.582 1.844-1.265 3.688-1.844 5.248-24.387 67.513-39.539 180.972-44.885 257.522-0.189 2.136-0.481 4.273-0.97 6.313l-0.486 8.838c-0.096 1.461-0.194 2.819-0.194 4.182 23.317 3.593 45.852 8.84 66.349 15.348 9.616 2.91 19.331 6.117 29.821 9.808 23.898 7.19 53.529 20.109 85.776 37.5a21.536 21.536 0 0 1 1.557 0.872c7.77 4.177 15.837 8.742 23.505 13.211 10.203 5.83 20.888 12.337 32.741 20.014 0.292 0.191 0.872 0.579 1.26 0.776 7.775 5.051 15.542 10.201 22.83 15.348 4.273 2.915 8.644 6.122 12.919 9.228l2.33 1.655 3.792 2.716c2.424 1.751 4.855 3.499 7.185 5.245a848.234 848.234 0 0 1 49.349 39.927 805.773 805.773 0 0 1 49.157-39.828c2.429-1.844 4.852-3.593 7.281-5.344l4.084-2.912 1.456-1.071c4.568-3.3 9.034-6.603 13.211-9.422 7.676-5.437 15.444-10.586 22.536-15.154l1.945-1.26c11.753-7.581 22.437-14.088 32.348-19.724 8.158-4.762 16.126-9.228 23.702-13.405 0.388-0.194 0.874-0.484 1.459-0.776 32.444-17.487 62.17-30.504 86.162-37.692 10.496-3.691 20.205-6.898 29.048-9.616 20.984-6.701 43.713-11.949 67.128-15.638-0.192-0.878-0.29-2.236-0.388-3.599z m-151.153-96.756L477.661 251.69 363.905 368.265a19.885 19.885 0 0 1-28.559 0c-7.87-8.067-7.87-21.18 0-29.24l128.033-131.243c3.981-4.079 9.133-6.021 14.282-6.021 5.145 0 10.294 2.041 14.277 6.021l236.542 242.37c7.873 8.067 7.873 21.18 0 29.242-7.964 8.162-20.692 8.162-28.557 0.095z m0 0"  horiz-adv-x="1024" />

    
    <glyph glyph-name="shouye-bofang-" unicode="&#58938;" d="M161.886 788.277L862.114 384 161.886-20.277z"  horiz-adv-x="1024" />

    
    <glyph glyph-name="shouye-fanhui" unicode="&#58939;" d="M715.145-61.055L253.563 394.183 715.812 829.055l53.958-57.368L367.068 392.85l403.369-397.845z"  horiz-adv-x="1024" />

    
    <glyph glyph-name="shouye-kecheng" unicode="&#58940;" d="M801.822 706.977H203.867c-76.093 0-128.835-50.411-128.835-126.502v-298.979c0-76.091 52.742-144.477 128.835-144.477h99.148v37.997h-99.148c-50.724 0-90.838 55.744-90.838 106.48V580.474c0 50.734 40.114 88.505 90.838 88.505h597.955c50.724 0 109.149-37.771 109.149-88.505v-298.979c0-50.736-58.425-106.48-109.149-106.48h-80.837v-37.997h80.837c76.093 0 147.146 68.385 147.146 144.477V580.474c0 76.092-71.053 126.503-147.146 126.503zM334.927 61.023H693.76L514.344 252.678z"  horiz-adv-x="1024" />

    
    <glyph glyph-name="shoucang" unicode="&#58941;" d="M781.706-31.022L512.012 164.915 242.294-31.022l103.018 317.053L75.616 481.968h333.378L512.012 799.022l102.995-317.053h333.378L678.689 286.032l103.017-317.054z m-560.74 465.77l179.866-130.686-68.709-211.453 179.889 130.686 179.866-130.686-68.709 211.453 179.866 130.686H580.698l-68.686 211.453-68.709-211.453H220.966z"  horiz-adv-x="1024" />

    
    <glyph glyph-name="shouye-daoshi" unicode="&#58942;" d="M371.811 365.08v0.114c0 10.969-7.669 19.832-18.507 19.832-71.159 0-128.479 62.525-128.479 139.351 0 76.808 58.157 139.321 129.296 139.321 10.837 0 19.736 8.893 19.736 19.812 0 10.953-8.693 19.816-19.53 19.816-92.772 0-168.19-80.3-168.19-178.981 0-65.723 33.485-123.241 83.246-154.341C163.554 332.037 87.084 225.285 87.084 99.785c0-10.951 8.767-19.814 19.604-19.814 10.839 0 19.608 8.863 19.608 19.814 0 135.332 101.228 245.413 227.038 245.413 10.88 0.128 18.477 9.003 18.477 19.882zM365.155 402.716c-1.938 0-3.47-0.284-4.672-0.765a17.768 17.768 0 0 0 5.164 0.765h-0.492m535.991-213.558c0.056 0.993 0.182 1.966 0.394 2.904-0.234-0.431-0.356-1.352-0.394-2.904m35.758 394.516c0.012 0.038 0.012 0.086 0.012 0.124v0.469c0-0.201 0-0.403-0.012-0.593m-35.778 0.058c0-0.038 0-0.08 0.01-0.122-0.01 0.216-0.01 0.439-0.01 0.657v-0.535m21.578-536.582a348.25 348.25 0 0 1-32.712 107.558 350.154 350.154 0 0 1-10.373 19.522c-0.01 0.02-0.02 0.042-0.044 0.058a361.154 361.154 0 0 1-58.043 74.117l-0.006 0.012a372.321 372.321 0 0 1-15.253 14.153c-37.316 32.696-80.398 56.946-126.339 71.694a218.518 218.518 0 0 1 24.083 15.485 220.193 220.193 0 0 1 25.053 21.56c41.419 41.427 64.235 96.502 64.235 155.082 0 58.584-22.816 113.663-64.235 155.082-40.672 40.668-94.512 63.394-151.89 64.213-0.907 0.012-1.822 0.022-2.729 0.022-0.913 0-1.824-0.01-2.731-0.022-57.38-0.819-111.22-23.545-151.892-64.213-41.415-41.423-64.235-96.498-64.235-155.082 0-58.58 22.82-113.659 64.235-155.082a220.433 220.433 0 0 1 25.049-21.564 218.865 218.865 0 0 1 24.088-15.485c-45.94-14.746-89.023-38.998-126.339-71.694a362.958 362.958 0 0 1-15.249-14.153c-22.714-22.295-42.21-47.274-58.093-74.183a353.958 353.958 0 0 1-10.375-19.522c-16.674-33.894-27.678-70.084-32.714-107.562-1.61-12.003 6.814-23.044 18.813-24.652 0.987-0.136 1.98-0.202 2.954-0.202 0.889 0 1.76 0.05 2.629 0.164 8.679 1.888 15.685 8.965 17.043 18.258 10.11 69.367 43.169 132.408 90.693 180.411 56.403 56.988 133.165 92.804 216.125 92.946h0.469c82.779-0.282 159.367-36.066 215.656-92.946 47.52-48.003 80.587-111.044 90.693-180.411 1.362-9.273 8.34-16.342 16.995-18.252 0.018 0 0.028-0.006 0.044-0.006 0.875-0.112 1.756-0.168 2.637-0.164 0.969 0 1.958 0.07 2.948 0.202 12 1.612 20.422 12.65 18.81 24.656M573.983 350.933c-0.445 0-0.887 0-1.324 0.01-81.858 0.605-154.84 57.476-174.782 133.76-0.226 0.837-0.439 1.674-0.643 2.511a162.588 162.588 0 0 0-4.782 39.178c0 13.462 1.66 26.721 4.782 39.55 0.202 0.861 0.421 1.708 0.643 2.559 20.051 78.198 93.713 140.348 176.106 140.348h0.937c82.385 0 156.051-62.154 176.104-140.348 0.22-0.851 0.443-1.698 0.645-2.559 3.118-12.834 4.782-26.088 4.782-39.55a162.95 162.95 0 0 0-5.427-41.689c-19.946-76.288-92.926-133.159-174.784-133.76-0.751-0.01-1.5-0.01-2.257-0.01"  horiz-adv-x="1024" />

    
    <glyph glyph-name="shouye-wode" unicode="&#58943;" d="M883.843 12.157H140.157V119.846c0 139.423 262.418 195.747 371.843 195.747s371.843-56.324 371.843-195.747v-107.689z m-704.404 39.282h665.122v68.407c0 97.063-215.32 156.465-332.561 156.465s-332.561-59.402-332.561-156.465v-68.407zM512 364.359c-107.929 0-195.737 87.808-195.737 195.747 0 107.929 87.808 195.737 195.737 195.737s195.737-87.808 195.737-195.737c0-107.938-87.808-195.747-195.737-195.747z m0 352.202c-86.274 0-156.455-70.181-156.455-156.455S425.726 403.641 512 403.641s156.455 70.191 156.455 156.465S598.274 716.561 512 716.561z"  horiz-adv-x="1024" />

    
    <glyph glyph-name="shouye-xuanze" unicode="&#58944;" d="M171.825 384m-106.305 0a106.305 106.305 0 1 1 212.61 0 106.305 106.305 0 1 1-212.61 0ZM512 384m-106.305 0a106.305 106.305 0 1 1 212.61 0 106.305 106.305 0 1 1-212.61 0ZM852.175 384m-106.305 0a106.305 106.305 0 1 1 212.61 0 106.305 106.305 0 1 1-212.61 0Z"  horiz-adv-x="1024" />

    
    <glyph glyph-name="shouye-shijian" unicode="&#58945;" d="M511.998 25.01c-197.944 0-358.99 161.04-358.99 358.99 0 197.944 161.046 358.99 358.99 358.99 197.95 0 358.99-161.046 358.99-358.99 0-197.95-161.039-358.99-358.99-358.99m0 789.776C274.458 814.786 81.212 621.543 81.212 384s193.246-430.786 430.786-430.786c237.543 0 430.789 193.243 430.789 430.786S749.542 814.786 511.998 814.786M547.901 390.891v208.5c0 19.827-16.073 35.9-35.903 35.9-19.824 0-35.893-16.073-35.893-35.9V376.03c0-9.517 3.767-18.669 10.518-25.379l120.369-120.375a35.79 35.79 0 0 1 50.76 0c14.013 14.02 14.013 36.747 0 50.763L547.901 390.891z m0 0"  horiz-adv-x="1024" />

    
    <glyph glyph-name="shouye-yinpin" unicode="&#58946;" d="M304.217 520.156H149.158c-27.29 0-84.212-3.111-84.212-30.428v-211.426c0-27.317 56.922-30.401 84.212-30.401h155.243L609.455-20.51V788.51L304.401 520.156h-0.184zM730.857 702.464c-25.837 8.995-36.836-31.891-11.2-40.852 264.008-91.93 264.134-463.37 0-555.208-25.684-8.971-14.637-49.863 11.2-40.825 304.356 105.83 304.169 530.965 0 636.885zM711.036 257.329c-23.199-14.256-1.964-50.816 21.375-36.509 125.581 77.007 125.445 249.341 0 326.419-23.339 14.321-44.575-22.294-21.375-36.533 98.294-60.414 98.356-193.029 0-253.377z"  horiz-adv-x="1024" />

    
    <glyph glyph-name="shouye-yonghu" unicode="&#58947;" d="M512.002 279.925c-137.9 0-416.294-70.249-416.294-208.145v-104.075h832.585V71.78c-0.001 137.896-278.395 208.145-416.291 208.145z m0 104.071c114.474 0 208.141 93.667 208.141 208.149S626.476 800.294 512.002 800.294c-114.482 0-208.149-93.667-208.149-208.149s93.667-208.149 208.149-208.149z m0 0"  horiz-adv-x="1024" />

    
    <glyph glyph-name="wode-guanzhugongzhonghao" unicode="&#58948;" d="M821.048 810.781H202.952c-64.753 0-117.732-52.98-117.732-117.732v-618.097c0-64.753 52.98-117.732 117.732-117.732h618.097c64.753 0 117.732 52.98 117.732 117.732V693.048c0 64.753-52.98 117.733-117.733 117.733zM512.744 164.432S261.195 322.575 261.195 450.015c0 76.776 46.416 153.553 134.761 153.553 80.856 0 116.788-78.531 116.788-78.531s31.462 78.531 116.788 78.531c85.365 0 133.273-75.244 133.273-153.553 0-128.969-250.061-285.583-250.061-285.583z"  horiz-adv-x="1024" />

    
    <glyph glyph-name="wode-fenxiangma" unicode="&#58949;" d="M459.783 331.784H320.546v-139.239h139.237V331.784z m-34.808-104.429h-69.62v69.618h69.62v-69.618zM459.783 575.455H320.546v-139.239h139.237V575.455z m-34.808-104.431h-69.62v69.62h69.62v-69.62zM703.454 575.455H564.217v-139.239h139.237V575.455z m-34.808-104.431h-69.62v69.62h69.62v-69.62zM821.048 810.781H202.952c-64.753 0-117.732-52.98-117.732-117.732v-618.097c0-64.753 52.98-117.732 117.732-117.732h618.097c64.753 0 117.732 52.98 117.732 117.732V693.048c0 64.753-52.98 117.733-117.733 117.733zM529.407 366.592h104.427v-34.808h-69.617v-52.214h-34.81v87.022z m-34.81-208.855H285.736V366.592h208.861v-208.855z m0 243.666H285.736v208.86h208.861v-208.86zM616.43 227.355h-52.213v-69.619h-34.81V262.165h87.023v-34.81z m121.834-69.618h-104.43v34.808h104.43v-34.808z m0 52.212H686.05v34.81h-34.81v52.214h52.214v-34.808h34.81v-52.216z m0 104.431H686.05v52.213h52.214v-52.213z m0 87.023H529.407v208.86h208.857v-208.86z"  horiz-adv-x="1024" />

    
    <glyph glyph-name="wode-shoucang" unicode="&#58950;" d="M779.798-28.089L512 166.475 244.213-28.089l102.273 314.81L78.699 481.285h331.006L512 796.089l102.295-314.804h331.006L677.514 286.72l102.284-314.809zM512 235.021l162.316-117.923-62.006 190.809L774.615 425.83h-200.62L512 616.635l-61.995-190.804h-200.62L411.69 307.907l-61.995-190.809L512 235.021z"  horiz-adv-x="1024" />

    
    <glyph glyph-name="wode-goumaijilu" unicode="&#58951;" d="M821.048 810.781H202.952c-64.753 0-117.732-52.98-117.732-117.732v-618.097c0-64.753 52.98-117.732 117.732-117.732h618.097c64.753 0 117.732 52.98 117.732 117.732V693.048c0 64.753-52.98 117.733-117.733 117.733zM478.47 157.253a47.714 47.714 0 0 0-47.716 0 47.706 47.706 0 0 0-23.857 41.326 47.707 47.707 0 0 0 23.857 41.327 47.714 47.714 0 0 0 71.571-41.327 47.709 47.709 0 0 0-23.855-41.326z m188.745 0a47.716 47.716 0 0 0-71.574 41.326 47.717 47.717 0 0 0 71.574 41.327 47.715 47.715 0 0 0 23.855-41.327 47.715 47.715 0 0 0-23.855-41.326z m79.421 368.384v-6.643c-1.509-1.812-1.509-1.812-1.509-3.324 0 0-55.567-207.77-58.889-212.601-3.321-5.134-8.153-6.645-18.12-6.645H411.125c-1.512 0-3.324 1.51-4.834 1.51-1.508 0-3.321 0-4.831 1.51-3.322 3.322-6.643 6.643-9.965 11.477 0 1.809-1.812 5.135-3.322 6.643-1.811 3.322-1.811 4.831-3.321 8.153-1.812 6.643-3.322 11.476-3.322 14.796l-3.322 12.987-4.832 26.273-6.643 36.239-6.643 40.767-21.14 106.303h-35.937c-5.134 0-8.153 0-11.777 3.321-3.321 1.51-4.833 4.832-8.155 8.156-1.51 1.811-1.51 3.321-4.832 6.643 0 1.51-1.508 3.321-1.508 4.831V596c0 4.831 3.321 11.175 6.643 14.496 3.322 1.812 4.831 3.322 6.343 5.135 3.322 1.51 6.645 1.51 9.965 1.51h48.924c6.643 0 11.475-1.51 16.608-3.322 1.51 0 3.322-1.812 4.831-3.322 1.812 0 3.322-1.811 3.322-3.321 3.321-1.51 4.832-4.832 4.832-8.156l3.322-9.662s0-3.322 1.51-6.643v-3.322l1.51-12.987 3.321-19.627h324.037c9.665 0 16.308-1.812 21.14-3.324 3.321 0 5.133-1.811 6.643-3.322 3.322-1.51 3.322-3.019 5.437-4.529 1.507-3.324 3.017-6.645 1.507-9.967zM618.592 487.586l-86.671-86.671-37.747 37.749c-6.344 6.643-17.818 6.643-24.463 0-6.643-6.343-6.643-17.82 0-24.463l49.224-48.922c6.343-6.645 17.818-6.645 24.461 0l98.148 98.148c6.645 8.153 8.153 17.816 1.51 24.159-6.342 6.643-17.818 6.643-24.462 0z"  horiz-adv-x="1024" />

    
    <glyph glyph-name="wode-lishi" unicode="&#58952;" d="M104.105 508.936h284.931c15.543 20.463 32.838 39.136 51.625 55.755H104.105c-15.365 0-27.851-12.523-27.851-27.909 0-15.364 12.487-27.846 27.851-27.846z m0 0M104.105 720.929h754.819c15.39 0 27.902 12.489 27.902 27.849 0 15.362-12.517 27.851-27.902 27.851H104.105c-15.365 0-27.851-12.489-27.851-27.851 0-15.36 12.487-27.849 27.851-27.849z m0 0M76.327 324.913c0-15.406 12.459-27.922 27.778-27.922h207.922c0.962 19.254 3.201 37.946 6.69 55.769H104.174c-15.358 0-27.847-12.489-27.847-27.847z m0 0M104.105 142.571c-15.344 0-27.838-11.704-27.838-26.109 0-14.398 12.494-26.107 27.838-26.107h259.896c-10.271 16.287-19.286 33.802-26.887 52.216H104.105z m0 0M660.732 565.337c-158.264 0-287.012-128.748-287.012-287.014 0-158.232 128.748-286.953 287.012-286.953 158.266 0 287.014 128.721 287.014 286.953 0 158.266-128.743 287.014-287.014 287.014z m0-518.271c-127.514 0-231.257 103.743-231.257 231.257 0 127.507 103.743 231.245 231.257 231.245h0.016c127.464-0.069 231.174-103.8 231.174-231.245 0.005-127.514-103.71-231.257-231.19-231.257z m0 0M764.36 305.396h-75.779V407.071c0 15.392-12.489 27.909-27.849 27.909-15.39 0-27.902-12.521-27.902-27.909v-129.522c0-15.36 12.517-27.849 27.902-27.849H764.36c15.392 0 27.904 12.489 27.904 27.849 0.004 15.353-12.512 27.847-27.904 27.847z m0 0"  horiz-adv-x="1024" />

    
    <glyph glyph-name="wode-wanshanxinxi" unicode="&#58953;" d="M821.048 810.781H202.952c-64.753 0-117.732-52.98-117.732-117.732v-618.097c0-64.753 52.98-117.732 117.732-117.732h618.097c64.753 0 117.732 52.98 117.732 117.732V693.048c0 64.753-52.98 117.733-117.733 117.733zM572.019 597.416c6.092 6.032 14.353 9.491 22.664 9.491 7.869 0 15.168-2.998 20.554-8.441l80.617-81.445c5.719-5.776 8.626-13.567 8.186-21.934-0.417-7.951-3.855-15.504-9.684-21.27l-35.569-35.206-119.45 126.458 32.682 32.347z m-252.068-360.85l9.104 116.399a11.624 11.624 0 0 0 3.402 7.338l184.572 182.684 119.45-126.458-181.682-179.828a11.584 11.584 0 0 0-7.221-3.316l-115.134-9.278a11.59 11.59 0 0 0-9.444 3.684 11.591 11.591 0 0 0-3.047 8.775z m403.895-75.473H300.151c-6.4 0-11.59 5.192-11.59 11.593 0 6.403 5.19 11.592 11.59 11.592h423.695c6.402 0 11.593-5.188 11.593-11.592 0-6.402-5.192-11.593-11.593-11.593z"  horiz-adv-x="1024" />

    
    <glyph glyph-name="wode-wodekefu" unicode="&#58954;" d="M821.048 810.781H202.952c-64.753 0-117.732-52.98-117.732-117.732v-618.097c0-64.753 52.98-117.732 117.732-117.732h618.097c64.753 0 117.732 52.98 117.732 117.732V693.048c0 64.753-52.98 117.733-117.733 117.733z m-65.25-519.08c0-37.554-22.041-49.853-42.233-49.798-39.187-0.054-40.165-0.054-40.165-0.054-12.628 0-32.656 9.633-32.656 35.701V449.86c-1.09 67.055-57.691 118.104-128.717 118.432-71.024-0.384-130.295-50.944-130.295-118.432V283.1s22.642-72.057 75.546-63.622c4.025 12.681 18.229 17.47 27.374 17.47h55.678c19.048 0 34.452-14.531 34.452-32.547v-10.284c0-17.963-15.457-32.547-34.452-32.547h-51.269c-14.531 0-26.941 8.652-32.002 20.79-0.818 0.436-7.674-0.109-14.424 1.251-52.192 17.635-75.053 58.455-75.053 58.455-0.924-0.165-1.793-0.273-2.72-0.273h-42.997c-18.124 0-53.662 4.46-53.662 46.369V375.19c0 56.873 37.282 66.126 53.662 66.126h20.411c0 6.53-0.054 8.762-0.054 9.36 2.504 155.167 166.976 155.712 166.976 155.712 1.307 0.054 4.409 0.054 5.661 0 0 0 164.801-0.601 167.03-156.145 0-0.981-0.053-3.431-0.053-8.927h31.785c24.382 0 42.235-17.418 42.179-62.972v-86.643z"  horiz-adv-x="1024" />

    
    <glyph glyph-name="xinzeng" unicode="&#58955;" d="M512 818.399C272.087 818.399 77.601 623.911 77.601 384S272.087-50.399 512-50.399c239.911 0 434.399 194.487 434.399 434.399S751.911 818.399 512 818.399zM731 343H554v-178h-83V343H293v82h178V603h83v-178h177v-82z"  horiz-adv-x="1024" />

    
    <glyph glyph-name="wode-wodetianehui" unicode="&#58956;" d="M821.048 810.781H202.952c-64.753 0-117.732-52.98-117.732-117.732v-618.097c0-64.753 52.98-117.732 117.732-117.732h618.097c64.753 0 117.732 52.98 117.732 117.732V693.048c0 64.753-52.98 117.733-117.733 117.733zM554.406 304.415c-216.608-76.35-307.1 3.395-307.1 3.395 31.673 154.978 184.942 239.11 184.942 239.11-70.984-89.485-51.181-135.324-46.662-153.426 4.521-18.094 33.942-59.099 100.955-62.217 67.024-3.11 82.019 2.551 138.295 17.826 56.269 15.26 82.551 26.011 82.551 26.011 9.899 3.966 13.3 9.325 13.3 9.325 6.788 12.727 27.995 12.727 33.081 4.26 1.018-1.7 2.691-5.1 6.247-6.349 9.111-3.212 16.679-4.969 16.679-4.969-67.307-16.97-222.288-72.966-222.288-72.966z"  horiz-adv-x="1024" />

    
    <glyph glyph-name="zixun" unicode="&#58957;" d="M512.002-9.178c-82.544 0-165.09 21.726-234.603 60.824L94.931-0.483l43.445 182.465C99.273 242.806 77.553 312.321 77.553 381.83c0 217.223 195.502 395.348 434.445 395.348 238.947 0 434.449-178.125 434.449-395.348 0-212.879-195.502-391.002-434.449-391.002l0.004-0.006zM286.088 108.127l8.689-4.347c65.166-39.101 139.022-60.824 217.225-60.824 212.879 0 386.659 156.403 386.659 347.557 0 191.157-173.78 347.557-386.659 347.557-212.883 0-386.659-156.401-386.659-347.557 0-65.166 21.722-125.989 56.476-182.465l4.347-8.689-30.412-125.991 130.333 34.756v0.003z m0 0M742.26 386.172c0-26.064-21.721-47.789-47.787-47.789-26.07 0-47.79 21.724-47.79 47.789 0 26.07 21.721 47.79 47.79 47.79 26.066 0 47.787-21.72 47.787-47.79z m-160.749 0c0-26.064-21.722-47.789-47.787-47.789-26.068 0-47.792 21.724-47.792 47.789 0 26.07 21.724 47.79 47.792 47.79 26.065 0 47.787-21.72 47.787-47.79z m-160.745 0c0-26.064-21.721-47.789-47.79-47.789-26.064 0-47.787 21.724-47.787 47.789 0 26.07 21.722 47.79 47.787 47.79 26.07 0 47.79-21.72 47.79-47.79z m0 0"  horiz-adv-x="1024" />

    
    <glyph glyph-name="zhiwen" unicode="&#58958;" d="M559.602 345.128c-7.394 16.666-17.592 30.805-37.123 28.538-19.721-2.29-27.182-18.282-29.759-36.028-3.16-21.77-3.883-40.471-2.578-69.603 1.744-82.995-36.166-136.023-85.808-191.481-15.796-17.646-33.346-33.714-49.848-50.744-8.741-9.025-15.868-18.96-3.144-30.115 10.11-8.867 19.429-3.163 26.83 4.059 60.887 59.46 120.643 120.35 140.962 206.723 11.955 50.823-1.778 115.245 7.08 117.14v-0.004c10.114 3.347 23.768-66.778 16.444-106.348-16.302-88.064-58.794-151.528-122.688-213.552-10.482-10.18-35.112-21.282-16.244-39.609 16.733-16.256 30.549 4.474 41.872 15.348 53.351 51.237 95.094 111.032 116.329 182.027 18.099 60.5 24.718 122.696-2.325 183.649zM400.811 282.647c9.59 42.718 14.165 86.532 22.574 129.547 11.386 58.216 39.848 86.934 80.516 82.933 19.465-1.912 49.588-15.548 56.81 4.013 7.64 20.691-26.658 31.863-48.714 34.156-32.476 3.378-57.138-1.962-86.005-29.361-32.14-30.507-39.241-79.147-43.3-118.947-9.553-93.734-37.094-178.156-107.805-244.424-9.415-8.816-23.691-19.645-9.322-33.496 13.181-12.7 24.788-0.874 34.53 8.633 48.06 46.89 85.807 100.55 100.716 166.946zM677.135 427.84c6.511-15.595 12.356-31.499 17.771-47.513 4.022-11.889 11.544-16.437 23.088-12.281 9.821 3.539 9.206 12.87 9.466 21.277v0.004c-17.866 90.131-98.056 197.668-202.194 211.271-98.935 12.922-166.658-38.052-187.424-136.22-3.222-15.235-5.411-28.265 11.829-32.316 15.33-3.606 18.762 10.487 22.277 21.989 1.978 6.469 4.151 12.888 6.381 19.278 31.524 90.331 103.642 119.944 188.822 76.305 51.722-26.497 87.67-68.323 109.984-121.794zM619.186 469.357c-9.013 9.678-18.155 23.173-33.374 10.453-12.377-10.344-5.586-21.144 2.833-30.605 100.876-113.336 86.934-325.984-18.809-444.735-9.394-10.549-18.502-28.065-9.402-36.412 13.536-12.42 26.972 4.096 36.21 14.239 68.201 74.87 89.746 164.963 91.78 264.354 0.795 90.621-25.423 175.67-69.238 222.706zM688.425 246.65v-0.004zM615.74 224.402c19.999 1.368 17.185 21.595 18.08 33.83 0.682 45.635-15.424 102.68-37.4 138.314-20.733 33.621-46.136 60.685-89.741 53.17-41.083-7.08-56.837-39.132-64.97-75.749-5.171-23.277-17.9-60.485 6.033-65.762 23.625-5.204 19.382 34.078 26.454 54.029 1.694 4.782 2.904 9.741 4.669 14.494 6.741 18.148 16.298 35.027 36.772 38.638 22.077 3.899 33.646-13.398 44.12-28.667 25.708-37.496 36.116-79.566 36.441-124.907 0.105-14.749-8.226-39.286 19.542-37.39zM223.898 301.59c10.912-8.114 19.185 0.322 25.972 7.578 34.45 36.827 42.011 84.598 49.162 131.204 11.504 74.966 33.838 141.916 106.73 179.767 7.481 3.887 14.872 8.289 15.888 19.223-3.732 23.658-19.725 18.026-33.763 11.126-53.036-26.077-85.942-69.57-106.001-124.253-24.249-66.097-15.613-142.218-61.942-201.694-5.323-6.832-3.628-17.315 3.954-22.951zM632.15 720.792c-40.551 17.885-83.059 30.513-129.128 30.735-66.205 0.318-128.251-22.068-181.738-65.125-9.612-7.737-18.281-17.554-9.16-30.057 7.641-10.482 19.29-6.059 27.165-0.025 88.201 67.577 183.052 71.614 282.736 30.42 11.933-4.933 24.7-8.77 30.599 5.064 7.41 17.378-8.598 23.75-20.474 28.988zM768.345 483.027c-4.77 11.832-9.305 23.436-23.913 20.432-14.979-3.084-16.783-14.788-11.599-27.712 37.035-92.386 55.355-187.024 36.123-286.607-1.828-9.481-0.674-21.85 12.08-24.47 16.013-3.288 21.127 10.232 22.62 21.307 4.05 29.998 8.817 58.259 8.424 90.498-0.971 79.617-16.741 139.544-43.735 206.552zM721.749 564.236c-58.027 73.903-137.225 111.785-234.029 114.257-12.78 0.326-41.245-0.724-41.245-22.691 0-17.98 26.437-13.524 41.249-14.181 83.695-3.732 152.41-37.274 207.631-99.9 8.063-9.147 15.155-27.357 31.357-15.83 18.653 13.268 3.97 26.968-4.963 38.345zM838.287 479.273v-0.004c-16.314 71.912-41.283 115.353-91.507 166.265-14.068 14.259-31.32 25.382-48.154 36.315-6.928 4.507-16.561 3.172-22.958-4.36-7.512-8.846-2.465-16.528 4.423-21.419 69.509-49.366 109.696-117.567 129.421-199.191 2.268-9.376 9.486-14.942 18.185-14.385 13.427 0.857 14.736 18.498 10.59 36.779zM621.308 172.93c-1.707 9.143-7.042 15.378-16.118 17.245-10.305 2.121-16.357-4.464-18.587-13.047-20.081-77.276-60.132-142.987-113.492-201.675-13.544-14.901-3.824-28.299 12.549-27.735h0.005c3.983 0.139 6.289 1.457 10.163 3.126 34.786 15.016 132.033 186.984 125.48 222.086zM719.74 334.06c-19.247-3.31-13.715-22.101-11.46-33.646 13.758-70.506 2.728-137.891-22.382-203.89-5.164-13.566-9.076-28.437 8.791-33.475 14.046-3.963 19.859 9.41 24.31 20.809 19.248 49.303 31.186 98.784 31.044 153.439-1.978 46.551-7.247 100.723-30.303 96.763zM460.659 254.127c0.569 4.645-1.707 15.721-11.548 18.218-14.93 3.791-23.382-4.996-24.876-17.796-4.474-38.299-22.495-70.536-45.082-99.918-21.479-27.943-46.253-53.358-69.685-79.791-8.44-9.519-15.009-20.649-3.712-30.608 10.623-9.357 22.201-3.817 30.783 5.937 23.32 26.507 46.773 52.915 69.443 79.975 29.847 35.631 48.455 72.976 54.677 123.983zM559.51 782.249c67.359-12.992 129.066-37.84 179.386-86.395 9.54-9.205 21.09-22.804 34.124-10.431 15.929 15.118 0.272 27.634-10.231 37.663-55.467 52.961-122.761 81.398-192.868 93.11-16.616 2.101-30.308 5.009-34.324-10.147-5.093-19.202 10.068-21.131 23.913-23.8zM281.989 598.079c7.954 11.109 28.629 22.352 8.946 37.048-20.637 15.411-29.734-7.248-38.788-19.414-41.781-56.15-52.517-123.497-66.486-189.588l-0.003 0.003c-2.432-11.97-5.747-25.432 10.581-28.821 18.697-3.875 21.29 11.453 24.659 24.904 15.139 60.422 23.385 123.225 61.091 175.868zM323.128 727.417c49.272 30.712 101.203 53.697 160.274 56.174 14.9 0.628 29.076 3.842 26.373 21.898-2.043 13.657-15.595 15.862-27.909 14.44h-0.005c-65.543-4.816-124.993-26.172-178.428-64.237-12.231-8.712-21.483-19.596-10.75-33.325 10.537-13.487 21.181-0.725 30.445 5.05zM347.904 363.748c3.477 14.248 5.658 29.299-8.686 33.22-15.649 4.272-18.939-10.26-21.984-21.926-14.214-54.484-30.906-107.475-75.511-146.595-9.582-8.401-32.316-16.29-13.766-34.369 15.273-14.893 27.875 1.335 39.169 10.419 45.823 38.073 65.041 94.829 80.778 159.251z"  horiz-adv-x="1024" />

    
    <glyph glyph-name="xia" unicode="&#58959;" d="M957.055 587.145L501.817 125.563 66.945 587.812l57.368 53.958L503.15 239.068l397.845 403.369z"  horiz-adv-x="1024" />

    
    <glyph glyph-name="shang" unicode="&#58960;" d="M957.055 180.855L501.817 642.437 66.945 180.188l57.368-53.958L503.15 528.932l397.845-403.369z"  horiz-adv-x="1024" />

    
    <glyph glyph-name="you" unicode="&#58961;" d="M308.855-61.055l461.582 455.238L308.188 829.055l-53.958-57.368L656.932 392.85 253.563-4.995z"  horiz-adv-x="1024" />

    
    <glyph glyph-name="bianji" unicode="&#58962;" d="M177.388 87.502c0.574 0 1.146 0.025 1.728 0.072l213.448 17.2a21.482 21.482 0 0 1 13.386 6.148l336.821 333.382-221.448 234.442-342.178-338.679a21.533 21.533 0 0 1-6.307-13.603L155.96 110.67a21.488 21.488 0 0 1 5.65-16.267 21.49 21.49 0 0 1 15.778-6.901zM850.073 550.51c10.805 10.689 17.177 24.69 17.952 39.433 0.814 15.511-4.574 29.954-15.176 40.664L703.392 781.598c-9.985 10.092-23.517 15.649-38.105 15.649-15.408 0-30.722-6.412-42.016-17.595l-60.588-59.97L784.131 485.24l65.942 65.27zM904.74 13.735H119.254c-11.864 0-21.487-9.619-21.487-21.489 0-11.868 9.623-21.494 21.487-21.494H904.74c11.868 0 21.494 9.625 21.494 21.494 0 11.87-9.626 21.489-21.494 21.489z"  horiz-adv-x="1024" />

    
    <glyph glyph-name="fenxiang" unicode="&#58963;" d="M767.07 233.837c-48.874 0-93.279-24.051-120.099-64.678L376.683 323.578c16.017 23.814 24.425 51.323 24.425 80.03 0 17.028-2.981 33.709-8.833 49.675l254.669 145.558c26.847-40.651 71.279-64.705 120.126-64.705 79.472 0 144.15 64.681 144.15 144.152s-64.678 144.15-144.15 144.15-144.15-64.678-144.15-144.15c0-9.898 1.144-20.087 3.378-30.386l-261.11-149.179c-27.43 31.236-66.538 49.034-108.231 49.034-79.499 0-144.177-64.651-144.177-144.123s64.678-144.15 144.15-144.15c29.187 0 57.175 8.699 81.254 25.247l288.114-164.635c-2.234-10.298-3.378-20.488-3.378-30.41 0-79.472 64.678-144.125 144.15-144.125s144.15 64.654 144.15 144.125-64.679 144.151-144.15 144.151z m91.285-144.149c0-50.339-40.945-91.285-91.285-91.285-50.337 0-91.285 40.945-91.285 91.285 0 50.337 40.948 91.285 91.285 91.285 50.34 0 91.285-40.949 91.285-91.285z m-510.112 313.92c0-50.337-40.948-91.285-91.285-91.285-50.339 0-91.312 40.948-91.312 91.285 0 50.339 40.973 91.285 91.312 91.285 24.476 0 47.225-9.47 64.438-26.792l23.812-41.744 0.054 0.052a89.2 89.2 0 0 0 2.981-22.801z m327.542 274.68c0 50.337 40.948 91.282 91.285 91.282 50.34 0 91.285-40.946 91.285-91.282 0-50.339-40.945-91.285-91.285-91.285-50.337 0-91.285 40.945-91.285 91.285z"  horiz-adv-x="1024" />

    
    <glyph glyph-name="fenxiang1" unicode="&#58964;" d="M928.017 275.161c0 26.5-7.917 47.869-23.042 62.601 11.972 15.091 22.841 41.883 22.841 66.145l-0.005 0.266c-1.319 54.158-52.938 91.984-125.528 91.984H636.142c12.078 39.074 17.421 83.973 15.101 128.183-2.64 50.293-14.992 95.017-34.777 125.929-11.566 18.062-25.367 31.454-41.021 39.812-12.36 6.604-25.541 9.947-39.168 9.947-29.396 0-78.701-12.431-78.701-95.694 0-41.195-1.717-82.177-22.328-130.544-9.064-16.574-68.246-77.961-127.777-77.961H186.966c-23.558 0-44.661-8.657-61.027-25.046-19.362-19.389-29.998-47.856-29.956-80.163l0.047-1.006 31.248-329.668c4.412-58.987 36.205-91.465 89.529-91.47 0.159 0 25.088-0.201 43.585-0.201 9.606 0 18.552 0.073 23.941 0.206 18.26 0.597 32.627 11.24 44.174 19.79l3.482 2.572c3.502 2.593 8.128 6.022 10.583 7.005 1.941-0.857 5.23-2.47 8.209-3.93 6.101-2.989 14.45-7.091 23.538-10.953 21.572-9.113 52.667-14.992 79.24-14.992h252.03c118.21 0 135.863 59.667 135.863 95.238 0 11.834-1.879 21.103-6.536 30.547 36.776 13.017 58.275 39.423 58.275 72.608 0 10.51-3.174 25.854-9.269 37.385 20.141 12.561 44.142 40.221 44.095 71.41z"  horiz-adv-x="1024" />

    
    <glyph glyph-name="shoucang1" unicode="&#58965;" d="M784.331-35.06l-272.32 197.843L239.669-35.06l104.02 320.139-272.32 197.842h336.624L512.011 803.06l103.996-320.139h336.624l-272.32-197.842z"  horiz-adv-x="1024" />

    
    <glyph glyph-name="baocuo" unicode="&#58966;" d="M512.002 793.599c-225.282 0-409.602-182.273-409.602-409.602C102.4 158.72 286.72-25.6 512.002-25.6c225.277 0 409.597 184.32 409.597 409.597 0 225.282-184.32 409.602-409.597 409.602z m221.183-630.785c-6.144-4.094-14.336-8.192-22.527-8.192-8.196 0-14.336 4.098-20.481 8.192l-178.74 179.662-177.61-177.61c-6.145-6.145-12.289-10.243-20.481-10.243-16.386 0-28.672 12.29-28.672 28.672 0 8.192 4.094 14.336 8.192 20.481l178.28 179.199-178.28 179.199c-12.289 12.289-12.289 30.723 0 40.961 12.289 12.289 30.719 12.289 40.961 0L512.46 424.501l177.718 178.633c12.285 12.289 30.719 12.289 40.957 0 12.289-12.289 12.289-30.719 0-40.961L552.961 384l180.224-180.224c12.285-12.289 12.285-30.719 0-40.962z"  horiz-adv-x="1024" />

    
    <glyph glyph-name="chenggong" unicode="&#58967;" d="M511.562 793.84c-225.282 0-409.602-184.32-409.602-409.602 0-225.277 184.32-409.597 409.602-409.597 225.277 0 409.597 184.32 409.597 409.597 0 225.282-184.32 409.602-409.597 409.602z m262.824-276.48L460.358 213.574c-6.824-6.828-13.652-6.828-20.476-6.828-6.828 0-13.656 3.414-20.481 6.828L248.733 380.828c-10.238 6.825-10.238 27.305 0 37.547 10.239 10.238 30.719 10.238 40.961 0l150.188-146.773 293.543 283.304c10.242 10.243 30.723 10.243 40.961 0 10.242-10.238 10.242-27.304 0-37.546z m0 0"  horiz-adv-x="1024" />

    
    <glyph glyph-name="jinggao" unicode="&#58968;" d="M804.755 676.667l-0.004 0.01c-78.193 78.141-182.13 121.176-292.669 121.176-110.535 0-214.449-43.039-292.609-121.19-78.174-78.165-121.228-182.102-121.228-292.66-0.024-110.548 43.007-214.5 121.172-292.711 78.165-78.123 182.074-121.145 292.594-121.145 110.548 0 214.509 43.049 292.742 121.228 161.334 161.345 161.334 423.906 0.002 585.292z m-324.71-41.754c0 17.619 14.334 31.954 31.953 31.954 17.62 0 31.954-14.335 31.954-31.954v-335.016c0-17.619-14.335-31.954-31.954-31.954s-31.953 14.335-31.953 31.954V634.913z m31.953-507.345c-25.914 0-46.997 21.083-46.997 46.997 0 25.916 21.083 47.001 46.997 47.001 25.917 0 47.002-21.085 47.002-47.001 0-25.914-21.085-46.997-47.002-46.997z"  horiz-adv-x="1024" />

    
    <glyph glyph-name="xinxitishi" unicode="&#58969;" d="M512 796.251C284.311 796.251 99.749 611.69 99.749 384c0-227.668 184.562-412.251 412.251-412.251 227.667 0 412.25 184.583 412.25 412.251C924.255 611.69 739.667 796.251 512 796.251z m69.047-573.186c-33.268-48.765-67.132-86.406-124.127-86.406-38.873 6.19-54.851 33.415-46.424 61.14l73.298 237.079c1.762 5.812-1.209 12.001-6.617 13.862-5.412 1.861-16.002-5.008-25.19-14.798l-44.283-52.055c-1.209 8.703-0.125 23.198-0.125 29.01 33.289 48.787 87.965 87.309 125.052 87.309 35.282-3.52 51.934-31.047 45.794-61.293l-73.798-238.257c-1.007-5.385 1.911-10.82 6.918-12.532 5.435-1.861 16.834 4.98 25.994 14.797l44.311 52.033c1.206-8.705-0.803-24.051-0.803-29.889z m-9.863 309.689c-28.03 0-50.752 19.904-50.752 49.291 0 29.392 22.722 49.291 50.752 49.291 28.031 0 50.725-19.899 50.725-49.291 0-29.387-22.694-49.291-50.725-49.291z m0 0"  horiz-adv-x="1024" />

    
    <glyph glyph-name="shouye" unicode="&#58970;" d="M920.547 368.565l-354.208 384.07a76.52 76.52 0 0 1-54.49 22.804 76.525 76.525 0 0 1-54.497-22.804l-353.77-384.07c-13.666-13.591-17.716-34.11-10.243-51.878 7.205-17.721 24.463-29.283 43.595-29.206h67.572a6.763 6.763 0 0 0 6.758-6.761v-211.217c0.235-42.397 34.543-76.703 76.941-76.943h147.788c19.833 0 20.054 21.797 20.054 37.707v186.15h111.821v-185.712c0-16.999 0-37.928 20.052-37.928h147.786c42.567 0.24 76.945 34.815 76.945 77.383V281.156a6.76 6.76 0 0 0 6.756 6.759h67.788c19.133-0.074 36.39 11.486 43.595 29.211 7.277 17.64 3.236 37.929-10.243 51.439z m-27.027-35.967a6.545 6.545 0 0 0-6.326-4.141h-67.788a47.077 47.077 0 0 1-33.226-13.942 47.11 47.11 0 0 1-13.638-33.359v-211.214c-0.235-20.212-16.627-36.502-36.837-36.618H608.19V236.471c0 11.113-8.943 20.154-20.052 20.275H435.555c-11.109-0.121-20.054-9.162-20.054-20.275v-203.148H288.204c-20.38 0.119-36.837 16.676-36.837 37.053v210.78a47.096 47.096 0 0 1-13.633 33.359 47.083 47.083 0 0 1-33.229 13.942h-67.793a6.329 6.329 0 0 0-6.321 4.141 6.55 6.55 0 0 0 1.528 7.414l353.987 383.195a36.634 36.634 0 0 0 25.942 10.771 36.625 36.625 0 0 0 25.935-10.771l354.208-383.195a6.544 6.544 0 0 0 1.529-7.414z m0 0"  horiz-adv-x="1024" />

    


  </font>
</defs>
</svg>
